Coordinates
version=1
nRows=17
nColumns=36
inDegrees=yes

Units are S.I. units (second, meters, Newtons, ...)
If the header above contains a line with 'inDegrees', this indicates whether rotational values are in degrees (yes) or radians (no).

endheader
time	pelvis_tilt	pelvis_list	pelvis_rotation	pelvis_tx	pelvis_ty	pelvis_tz	hip_flexion_r	hip_adduction_r	hip_rotation_r	knee_angle_r	knee_angle_r_beta	ankle_angle_r	subtalar_angle_r	mtp_angle_r	hip_flexion_l	hip_adduction_l	hip_rotation_l	knee_angle_l	knee_angle_l_beta	ankle_angle_l	subtalar_angle_l	mtp_angle_l	lumbar_extension	lumbar_bending	lumbar_rotation	arm_flex_r	arm_add_r	arm_rot_r	elbow_flex_r	pro_sup_r	arm_flex_l	arm_add_l	arm_rot_l	elbow_flex_l	pro_sup_l
      0.00000000	     -3.65520398	     -2.78317460	     -0.26867353	     -0.93833611	      1.21661491	     -0.21232419	     17.07835691	     -7.40972747	      7.43460675	     30.41794954	      0.53089337	      4.47772258	    -22.94126612	     -5.63772287	     14.16388832	      4.91197943	      5.78002391	     22.28121962	      0.38888064	     12.40173068	    -21.96086248	     -5.63772287	     -4.59096028	      3.31609980	     -1.68357141	      6.54475755	     -9.31046003	     28.55982812	     21.09620987	     68.84186795	      2.80266113	     -4.62605223	     28.11656049	     18.62943298	     60.32587947
      0.00416670	     -4.40065223	     -2.33136272	     -0.41653771	     -0.93638757	      1.21370883	     -0.21204649	     18.41022459	     -8.09472276	      7.79941656	     31.49536777	      0.54969787	      8.71535043	    -19.64080929	     -5.71568086	     15.87268841	      6.39776177	      7.45137246	     24.20351031	      0.42243095	     12.30279240	    -23.71602148	     -5.71568086	     -3.12694462	      3.34623031	     -1.71468800	      6.38201186	     -8.97983083	     29.23696073	     20.78295139	     69.82662639	      1.96506802	     -4.56532438	     29.04172730	     19.11533605	     60.90362691
      0.00833330	     -4.89445417	     -0.49597274	     -1.23663824	     -0.93543142	      1.21273010	     -0.21076660	     18.96444850	    -10.04898729	      8.41191292	     30.90281121	      0.53935580	      9.06509674	    -20.08573702	     -5.81785915	     15.85738090	      8.37662667	      7.85309232	     23.45311821	      0.40933413	     11.74924684	    -24.32535752	     -5.81785915	     -2.20538640	      1.28215238	     -1.16511455	      6.21665999	     -8.43708267	     29.45723419	     20.24445326	     70.30762236	      1.70948083	     -5.08586493	     29.57124523	     18.95180905	     61.32801936
      0.01250000	     -4.67458586	      0.40292968	     -1.56028783	     -0.93531520	      1.21288805	     -0.21056326	     18.99531436	    -11.07954212	      8.81571160	     31.02459556	      0.54148134	      9.10977282	    -19.91599356	     -6.98169733	     15.16953484	      9.44077237	      8.89339110	     22.79581738	      0.39786207	     10.61114782	    -25.85565840	     -6.98169733	     -2.25745773	      0.28648320	     -0.91780924	      5.40128742	     -7.70822946	     24.32040150	     20.18842337	     81.16029799	      2.08964956	     -5.43119688	     31.97547164	     18.35276983	     65.45163400
      0.01666670	     -4.62566312	      1.02184241	     -1.76926667	     -0.93513532	      1.21290140	     -0.21023489	     19.37124553	    -11.58621070	      9.48911976	     31.71959738	      0.55361141	      8.61699609	    -20.88146427	     -7.02082510	     14.84609328	     10.19746662	      9.57008936	     22.31598314	      0.38948738	      9.78054741	    -27.20058212	     -7.02082510	     -2.23502064	     -0.35016895	     -0.78422789	      5.37696068	     -7.35602804	     23.55543837	     19.90857765	     80.49150713	      2.01772433	     -5.29997090	     31.60887411	     17.82359907	     65.20777544
      0.02083330	     -4.53221746	      1.36367760	     -2.05002246	     -0.94216317	      1.21381433	     -0.20488834	     19.76854744	    -11.59072037	      9.82128538	     32.12085367	      0.56061466	      7.56220817	    -22.67068592	     -7.04046296	     14.73045127	     10.38461036	     10.36447295	     21.68366236	      0.37845130	      8.32300081	    -29.00281788	     -7.04046296	     -2.85699008	     -0.86296434	     -0.42490622	      5.54224443	     -6.69317489	     21.55349666	     19.90849086	     80.59952445	      2.38836575	     -5.35934616	     30.47155428	     17.96062300	     65.09733821
      0.02500000	     -4.57447887	      1.44231385	     -2.07891986	     -0.94237373	      1.21389341	     -0.20495590	     20.22558627	    -11.52871301	      9.85944564	     32.38615778	      0.56524509	      6.98043725	    -23.66558210	     -7.23974001	     14.76846626	     10.40311550	     10.81427166	     21.37340157	      0.37303623	      7.52674674	    -29.65776276	     -7.23974001	     -3.19522474	     -0.96274879	     -0.25916475	      5.16817177	     -5.84254869	     14.03420906	     20.92602416	     88.21599798	      2.36127955	     -5.00149839	     25.56560771	     18.29411772	     67.23866571
      0.02916670	     -4.53021412	      1.43140277	     -2.25848729	     -0.94252875	      1.21414231	     -0.20490290	     20.49730659	    -11.34613869	      9.91450157	     32.52028948	      0.56758613	      6.79849163	    -23.92314835	     -7.25091094	     14.94165917	     10.31458569	     10.83703092	     21.62040313	      0.37734722	      7.07807161	    -30.17908497	     -7.25091094	     -3.41853389	     -1.14230681	      0.21160977	      5.24335710	     -5.55563208	     13.67145680	     20.78355984	     87.76133002	      2.73005689	     -4.97801797	     24.93292285	     18.23545786	     66.96156479
      0.03333330	     -4.58104650	      1.55120399	     -2.37930412	     -0.94258116	      1.21438781	     -0.20487270	     20.73822053	    -11.36052291	     10.02460355	     32.58465441	      0.56870951	      6.28286415	    -24.71808688	     -7.32120198	     14.97271173	     10.34668177	     10.97878565	     21.37600179	      0.37308161	      6.49319061	    -30.18547057	     -7.32120198	     -3.46103965	     -1.33000379	      0.45428312	      5.00773714	     -5.22859794	     11.52999834	     21.23568666	     86.48588040	      2.61923276	     -4.56454317	     20.60598172	     18.53009984	     65.37626316
      0.03750000	     -4.34213933	      1.79369765	     -2.41019539	     -0.93554894	      1.21786272	     -0.20951088	     20.40894836	    -11.71876931	     10.19296296	     32.66382533	      0.57009130	      5.85202212	    -25.09494314	     -7.32552012	     14.21469158	     10.70193211	     11.34672719	     20.63316721	      0.36011670	      5.96478691	    -30.39417385	     -7.32552012	     -3.43587294	     -1.46533152	      0.62910445	      4.83266447	     -5.17326443	     11.23175378	     21.18822749	     86.63744021	      2.52661413	     -4.33645623	     20.10673876	     18.39594268	     65.24204280
      0.04166670	     -4.31549339	      1.81784407	     -2.49322462	     -0.94238849	      1.21465453	     -0.20458461	     20.47946155	    -11.73733837	     10.15094781	     32.62195251	      0.56936048	      6.00396575	    -25.30121987	     -7.32565196	     14.28078293	     10.71351821	     11.31614796	     20.64624925	      0.36034503	      6.03422320	    -30.56073474	     -7.32565196	     -3.55661175	     -1.43843266	      0.62420382	      4.76605457	     -5.13432295	     11.21382847	     21.17474514	     86.64853943	      2.54991185	     -4.32069227	     20.06446738	     18.38784846	     65.22926156
      0.04583330	     -4.04300136	      1.83657758	     -2.49320160	     -0.94280009	      1.21483686	     -0.20436200	     20.23968783	    -11.63207637	     10.48290834	     32.61733461	      0.56927988	      5.40742978	    -26.51560177	     -7.34565398	     13.71726288	     10.70057528	     11.55908132	     20.12774337	      0.35129539	      5.80971859	    -30.69779883	     -7.34565398	     -3.88368895	     -1.59036383	      0.90494146	      4.66215192	     -4.94179318	     10.06168131	     21.57318185	     85.93568397	      2.66972002	     -4.03066826	     18.12314703	     18.36535476	     64.29147846
      0.05000000	     -4.35930156	      1.97925209	     -2.77255687	     -0.94273012	      1.21473561	     -0.20395818	     20.76275773	    -11.64049607	     10.71821555	     32.70120031	      0.57074361	      5.42211021	    -26.72910553	     -7.37038696	     13.76568870	     10.74199835	     11.73476616	     19.52630289	      0.34079828	      5.54891633	    -30.97309554	     -7.37038696	     -3.49519502	     -1.82634320	      1.05541687	      4.40002661	     -4.87832207	      9.84952057	     22.13580174	     84.16413553	      2.34658249	     -4.07640618	     17.48430720	     18.90968548	     63.67158036
      0.05416670	     -4.24312870	      1.93671470	     -2.95780769	     -0.94292514	      1.21536931	     -0.20385417	     20.50474817	    -11.60366640	     10.57889703	     32.29991134	      0.56373980	      5.24913019	    -26.54940822	     -7.39293768	     13.43193201	     10.65264601	     11.99685016	     19.14308829	      0.33410992	      5.46079251	    -30.94480800	     -7.39293768	     -3.65307600	     -1.81463840	      1.19985449	      4.56848798	     -4.93775845	      9.86886547	     22.07456644	     82.86268104	      2.40099590	     -3.87014570	     16.79157639	     18.69803588	     63.04473692
      0.05833330	     -4.49764849	      1.85687847	     -3.26430715	     -0.94977134	      1.21527889	     -0.19862979	     21.19317619	    -11.18796000	     10.90657133	     32.45700718	      0.56648164	      5.21102240	    -27.10932876	     -7.40177158	     14.02085790	     10.41590652	     11.90378873	     19.42517178	      0.33903321	      5.75482377	    -30.75931669	     -7.40177158	     -3.71087678	     -1.92249470	      1.25403840	      5.00042942	     -4.99267234	     10.55963016	     22.17213809	     84.82084025	      2.56946184	     -3.88504208	     15.99886046	     18.58561399	     62.64248568
      0.06250000	     -4.32944188	      1.77540419	     -3.14121603	     -0.94996637	      1.21547442	     -0.19883389	     21.11518350	    -10.99438578	     10.85843275	     32.52388992	      0.56764896	      5.05972222	    -27.45923792	     -7.42160525	     14.13999898	     10.25168225	     12.01822182	     19.77959664	      0.34521909	      5.55638724	    -31.08179859	     -7.42160525	     -4.23580496	     -2.08224862	      1.13671869	      5.31204462	     -4.88409042	     10.60393947	     22.25425765	     83.28452776	      2.82961792	     -4.08122565	     15.81121676	     18.83471206	     62.21685037
      0.06666670	     -4.27480679	      1.84147756	     -3.15671035	     -0.94328346	      1.21533294	     -0.20376693	     20.93679795	    -11.25164459	     10.61365291	     32.45048845	      0.56636787	      4.83998348	    -27.40754480	     -7.42197894	     14.16318212	     10.30966250	     11.94611171	     20.10734070	      0.35093930	      5.63130144	    -31.19738872	     -7.42197894	     -4.25539897	     -2.27314942	      1.10096042	      5.28441009	     -4.85597567	     10.62513221	     22.26483224	     83.39237764	      2.79545992	     -4.09950798	     15.83959032	     18.80656136	     62.21316964
